<?xml version="1.0" encoding="utf-8"?>
<!-- Generator: Adobe Illustrator 16.0.0, SVG Export Plug-In . SVG Version: 6.00 Build 0)  -->
<!DOCTYPE svg PUBLIC "-//W3C//DTD SVG 1.1//EN" "http://www.w3.org/Graphics/SVG/1.1/DTD/svg11.dtd">
<svg version="1.1" id="Layer_1" xmlns="http://www.w3.org/2000/svg" xmlns:xlink="http://www.w3.org/1999/xlink" x="0px" y="0px"
	 width="470px" height="158px" viewBox="0 0 470 158" enable-background="new 0 0 470 158" xml:space="preserve">
<g id="BACKGROUND">
	
		<radialGradient id="SVGID_1_" cx="122.6904" cy="639.7402" r="267.1084" gradientTransform="matrix(1.2926 0 0 -0.5633 82.6072 459.3845)" gradientUnits="userSpaceOnUse">
		<stop  offset="0" style="stop-color:#1F1E5B"/>
		<stop  offset="0.9944" style="stop-color:#010101"/>
	</radialGradient>
	<rect x="-104.107" y="-51.451" display="none" fill="url(#SVGID_1_)" width="690.596" height="300.902"/>
	<path fill="#79C582" d="M419.924,106.893c0,0-0.328-1.809-1.15-4.439c0,0,0-0.164-0.165-0.329l1.48-0.164c0,0.164,0,0.164,0,0.329
		C420.253,103.769,420.253,105.413,419.924,106.893z"/>
</g>
<g id="OBJECTS">
	<g display="none" opacity="0.33">
		
			<linearGradient id="SVGID_2_" gradientUnits="userSpaceOnUse" x1="23.4775" y1="464.6191" x2="187.1218" y2="468.2557" gradientTransform="matrix(1.6443 0 0 -1.6443 41.8778 976.6528)">
			<stop  offset="0" style="stop-color:#1C76BC"/>
			<stop  offset="0.5022" style="stop-color:#68CDF5"/>
			<stop  offset="1" style="stop-color:#1C76BC"/>
		</linearGradient>
		<path display="inline" fill="url(#SVGID_2_)" d="M75.485,203.868c117.205-16.763,171.968,13.307,171.968,13.307l-81.505,12.282
			l117.46-7.549C183.093,168.425,75.485,203.868,75.485,203.868z"/>
		
			<linearGradient id="SVGID_3_" gradientUnits="userSpaceOnUse" x1="-71.2266" y1="442.4727" x2="384.548" y2="440.0483" gradientTransform="matrix(1.6443 0 0 -1.6443 41.8778 976.6528)">
			<stop  offset="0" style="stop-color:#BDBCBC"/>
			<stop  offset="0.2371" style="stop-color:#FFFFFF"/>
			<stop  offset="0.4769" style="stop-color:#F4F4F4"/>
			<stop  offset="0.7156" style="stop-color:#CCCBCB"/>
			<stop  offset="1" style="stop-color:#6D6C6C"/>
		</linearGradient>
		<path display="inline" fill="url(#SVGID_3_)" d="M433.112,212.951c-27.126-3.326-54.892-2.303-81.89,1.28
			c-8.957,1.151-17.785,2.688-26.615,4.479c-0.511,0.127-3.325,1.024-5.757,1.663l0,0c-2.047,0.512-3.711,0.896-4.094,0.512
			C266.39,185.826,205.74,176.87,168.891,174.95h-49.773C29.167,175.846-9.859,212.057-9.859,212.057
			c-19.96,1.791-37.874,6.014-50.285,28.021c-3.456,6.27-5.375,15.482-5.758,25.59c-1.407,32.5,25.078,59.242,57.578,59.242
			c-27.125-22.392-33.907-30.964-35.059-51.948c-1.023-21.112,12.667-40.049,36.338-34.676c0.128,0,0.128,0,0.256,0
			c2.815,0.385,5.758-0.127,8.445-1.407c28.277-13.818,61.417-8.188,61.417-8.188c43.632,8.572,51.564,36.466,51.564,36.466
			l262.686-20.855c56.3-43.504,116.438-2.304,116.438-2.304c-18.938,8.062,20.855,30.325,20.855,30.325
			c8.062,5.246,10.748,12.027,11.389,17.913c1.151,11.388-9.213,20.601-20.345,18.169c-0.385-0.128-0.513-0.128-0.513-0.128
			c-0.511-53.868-41.839-67.687-43.503-68.199c51.053,29.174,19.832,84.705,19.832,84.705h52.589
			c6.142-4.222,8.829-12.027,9.853-19.321C551.853,246.859,479.431,218.71,433.112,212.951z M121.548,236.751
			c-25.207-29.558-71.525-27.638-71.525-27.638c55.403-27.509,129.231-22.646,129.231-22.646
			c72.038,4.222,126.034,39.792,126.034,39.792L121.548,236.751z M511.163,264.005c-10.876-5.373-13.947-10.364-14.586-13.307
			c-0.385-1.663,0-3.456,1.15-4.734c1.279-1.407,3.071-1.663,4.479-1.535c1.408,0.128,2.688,0.512,3.84,1.279
			c18.68,10.62,24.182,24.951,25.718,33.65c0.256,1.408-1.664,2.176-2.432,1.023C523.318,271.042,511.163,264.005,511.163,264.005z"
			/>
		
			<linearGradient id="SVGID_4_" gradientUnits="userSpaceOnUse" x1="189.3755" y1="458.0801" x2="61.4352" y2="466.7618" gradientTransform="matrix(1.6443 0 0 -1.6443 41.8778 976.6528)">
			<stop  offset="0" style="stop-color:#FFFFFF"/>
			<stop  offset="1" style="stop-color:#FFFFFF;stop-opacity:0"/>
		</linearGradient>
		<path display="inline" fill="url(#SVGID_4_)" d="M91.607,193.759c0,0,112.727-31.988,213.553,32.5l-151.88,8.829L91.607,193.759z"
			/>
	</g>
	<g>
		<path fill="#FFFFFF" d="M353.014,92.293c-0.639,0-1.151,0-1.791,0.127l-4.734,0.256l-3.198,6.142l21.752-1.152l-12.796-20.472
			c-0.512-0.768-1.023-1.28-1.535-1.792c-0.64-0.512-1.408-0.64-2.304-0.64s-1.663,0.384-2.175,0.896
			c-0.512,0.512-1.023,1.151-1.408,1.918l-10.875,21.752l6.781-0.384l7.934-15.994l3.71,6.014c0.385,0.511,0.64,1.151,1.023,1.791
			c0.385,0.64,0.64,1.151,1.023,1.536C354.165,92.165,353.653,92.165,353.014,92.293z"/>
		
			<linearGradient id="SVGID_5_" gradientUnits="userSpaceOnUse" x1="4.0972" y1="521.6162" x2="241.4375" y2="521.6162" gradientTransform="matrix(1.6443 0 0 -1.6443 41.8778 976.6528)">
			<stop  offset="0" style="stop-color:#BDBCBC"/>
			<stop  offset="0.2371" style="stop-color:#FFFFFF"/>
			<stop  offset="0.4769" style="stop-color:#F4F4F4"/>
			<stop  offset="0.7156" style="stop-color:#CCCBCB"/>
			<stop  offset="1" style="stop-color:#6D6C6C"/>
		</linearGradient>
		<path fill="url(#SVGID_5_)" d="M367.089,115.708c-3.967,2.175-8.573,3.328-13.436,3.328s-9.468-1.28-13.435-3.328H151.361
			c-3.966,2.175-8.572,3.328-13.435,3.328c-4.862,0-9.468-1.28-13.435-3.328H67.553l-18.938,6.526h370.551l19.703-6.526H367.089z"/>
		
			<linearGradient id="SVGID_6_" gradientUnits="userSpaceOnUse" x1="64.8735" y1="566.5605" x2="160.2979" y2="568.681" gradientTransform="matrix(1.6443 0 0 -1.6443 41.8778 976.6528)">
			<stop  offset="0" style="stop-color:#1C76BC"/>
			<stop  offset="0.5022" style="stop-color:#68CDF5"/>
			<stop  offset="1" style="stop-color:#1C76BC"/>
		</linearGradient>
		<path fill="url(#SVGID_6_)" d="M145.603,39.96c68.327-9.852,100.315,7.677,100.315,7.677l-47.471,7.166l68.455-4.479
			C208.3,19.36,145.603,39.96,145.603,39.96z"/>
		
			<linearGradient id="SVGID_7_" gradientUnits="userSpaceOnUse" x1="9.6489" y1="553.5801" x2="275.4209" y2="552.1664" gradientTransform="matrix(1.6443 0 0 -1.6443 41.8778 976.6528)">
			<stop  offset="0" style="stop-color:#BDBCBC"/>
			<stop  offset="0.2371" style="stop-color:#FFFFFF"/>
			<stop  offset="0.4769" style="stop-color:#F4F4F4"/>
			<stop  offset="0.7156" style="stop-color:#CCCBCB"/>
			<stop  offset="1" style="stop-color:#6D6C6C"/>
		</linearGradient>
		<path fill="url(#SVGID_7_)" d="M390.761,78.346c-0.385-0.768-0.77-1.407-1.28-2.047l0,0c-0.513-0.639-1.151-1.151-1.791-1.535
			c-1.024-0.64-2.048-1.023-3.199-1.152c-0.256,0-0.385,0-0.64-0.128c2.814,4.862,3.966,9.98,4.095,14.842
			c0.256-0.127,0.512-0.383,0.768-0.512c0.64-0.512,1.024-1.024,1.407-1.792c0.384-0.64,0.641-1.407,0.896-2.303
			c0.128-0.895,0.256-1.663,0.256-2.559C391.271,80.138,391.016,79.114,390.761,78.346z M386.665,72.46
			c-6.908-8.317-15.227-11.132-15.738-11.26c5.886,3.327,9.98,7.421,12.54,11.643c0,0,0,0,0,0.128
			c0.768,0.128,2.942,0.384,4.734,1.664C387.816,73.868,387.306,73.229,386.665,72.46z M418.525,87.687
			c0-0.256-0.129-0.511-0.129-0.767c-0.767-3.455-2.047-6.654-3.71-9.725c-0.383-0.768-0.896-1.408-1.278-2.047
			c-0.385-0.512-0.769-1.152-1.152-1.664c-0.256-0.384-0.512-0.767-0.896-1.152c-12.028-15.482-35.827-23.927-54.252-26.742
			c-1.023-0.128-2.048-0.255-3.071-0.384c-15.865-1.919-31.987-1.28-47.726,0.768c-5.246,0.64-10.364,1.536-15.61,2.559
			c-0.256,0-1.92,0.64-3.326,1.024l0,0c-1.152,0.256-2.176,0.512-2.304,0.384c-28.149-20.473-63.592-25.59-85.088-26.742h-28.917
			C118.605,23.71,95.83,44.823,95.83,44.823c-11.516,1.023-22.007,3.455-29.173,16.25c-2.047,3.71-3.071,9.084-3.327,14.97
			c-0.768,18.937,14.714,34.547,33.651,34.547C81.115,97.539,77.148,92.549,76.509,80.266C75.87,67.854,83.93,56.979,97.75,60.049
			h0.127c1.664,0.256,3.455,0,4.862-0.768c16.506-8.061,35.827-4.734,35.827-4.734c25.462,4.991,30.068,21.24,30.068,21.24
			l153.16-12.155c32.883-25.334,67.943-1.408,67.943-1.408c-11.005,4.734,12.154,17.658,12.154,17.658
			c4.734,3.07,6.271,7.038,6.654,10.492c0.64,6.653-5.375,12.027-11.9,10.62c-0.256,0-0.256,0-0.256,0
			c0-4.479-0.512-8.445-1.407-12.155l0,0c-0.896-3.455-2.047-6.526-3.327-9.212c0,0.383,0.129,0.768,0.129,1.151
			c0,5.758-2.304,7.421-3.583,7.933v0.896c0,0.127,0,0.255,0,0.384c0,2.175-0.256,4.351-0.641,6.398
			c-1.407,7.804-4.605,13.691-4.862,14.202l0,0h30.453c0.129-0.128,0.384-0.256,0.512-0.384c0.769-0.639,1.407-1.407,2.048-2.175
			c0.128-0.256,0.255-0.384,0.384-0.64c0.384-0.64,0.768-1.408,1.15-2.047c0.129-0.256,0.257-0.512,0.257-0.64
			c0.641-1.664,1.023-3.583,1.279-5.247C419.293,95.236,419.166,91.397,418.525,87.687z M191.026,58.129l-18.553,1.023
			c-14.714-17.273-41.712-16.121-41.712-16.121c7.933-3.839,16.378-6.654,24.695-8.701c25.975-6.142,50.541-4.606,50.541-4.606
			c35.955,2.047,64.232,17.658,71.526,22.008c0.64,0.383,1.278,0.768,1.918,1.151L191.026,58.129z M399.717,75.02
			c-6.398-3.199-8.062-6.142-8.573-7.805c-0.256-1.023,0-2.047,0.641-2.815c0.767-0.768,1.79-0.896,2.559-0.896
			c0.767,0,1.535,0.383,2.303,0.768c10.877,6.142,14.075,14.586,14.971,19.705c0.128,0.768-0.896,1.28-1.408,0.512
			C406.753,79.114,399.717,75.02,399.717,75.02z"/>
		
			<linearGradient id="SVGID_8_" gradientUnits="userSpaceOnUse" x1="161.6138" y1="562.7383" x2="87.0099" y2="567.8007" gradientTransform="matrix(1.6443 0 0 -1.6443 41.8778 976.6528)">
			<stop  offset="0" style="stop-color:#FFFFFF"/>
			<stop  offset="1" style="stop-color:#FFFFFF;stop-opacity:0"/>
		</linearGradient>
		<path fill="url(#SVGID_8_)" d="M155.072,34.075c0,0,65.768-18.681,124.498,18.937l-88.543,5.117L155.072,34.075z"/>
		
			<linearGradient id="SVGID_9_" gradientUnits="userSpaceOnUse" x1="148.0337" y1="547.0654" x2="246.6341" y2="546.541" gradientTransform="matrix(1.6443 0 0 -1.6443 41.8778 976.6528)">
			<stop  offset="0" style="stop-color:#BDBCBC"/>
			<stop  offset="0.2371" style="stop-color:#FFFFFF"/>
			<stop  offset="0.4769" style="stop-color:#F4F4F4"/>
			<stop  offset="0.7156" style="stop-color:#CCCBCB"/>
			<stop  offset="1" style="stop-color:#6D6C6C"/>
		</linearGradient>
		<path fill="url(#SVGID_9_)" d="M418.909,99.458c-0.513,3.327-1.664,6.526-3.711,9.212c-0.512,0.769-1.151,1.409-1.918,1.792
			c-0.641,0.255-1.536,0.255-2.304,0.255c-9.469,0-19.065,0-28.533,0c7.294-0.639,14.842-1.407,20.984-5.373
			c5.758-3.711,9.724-10.109,10.363-17.019c1.536-15.482-12.667-24.311-24.694-30.452c-8.189-4.223-17.019-7.422-25.975-9.469
			c-0.256,0-0.512-0.127-0.896-0.127c-31.092-6.398-64.615,0-74.852,1.407c1.406-0.383,3.07-0.895,3.326-0.895
			c5.118-1.024,10.364-1.919,15.61-2.56c15.738-2.047,31.987-2.687,47.726-0.768c21.241,2.559,46.959,11.132,59.243,29.941
			C417.758,81.801,420.316,91.142,418.909,99.458z"/>
		<path fill="#FFFFFF" d="M196.656,99.331c-0.64-0.768-1.28-1.408-1.664-1.792c-0.383-0.384-0.768-0.768-1.151-1.024
			c0.768-0.256,1.408-0.639,2.047-1.023c0.64-0.512,1.023-1.023,1.407-1.791c0.384-0.64,0.64-1.407,0.896-2.303
			c0.128-0.768,0.255-1.664,0.128-2.559c-0.128-1.663-0.512-3.071-1.152-4.094c-0.64-1.024-1.535-1.792-2.431-2.432
			c-1.023-0.64-2.047-1.023-3.199-1.151c-1.151-0.128-2.303-0.256-3.327-0.128l-12.027,0.64l-3.455,6.27l16.25-0.896
			c1.023,0,1.791,0.129,2.431,0.513c0.512,0.384,0.896,1.151,0.896,2.047c0,0.768-0.256,1.535-0.768,1.918
			c-0.64,0.512-1.28,0.769-2.175,0.769l-16.25,0.895l0.64,11.9l5.758-0.384l-0.384-6.142l8.829-0.512l4.478,6.014l7.677-0.384
			L196.656,99.331z"/>
		<path fill="#FFFFFF" d="M207.532,97.283l-0.128-3.198l11.516-0.64l2.943-5.502l-14.842,0.896l-0.128-2.815l12.155-0.64
			l3.455-6.269l-21.624,1.279l1.28,23.415l18.041-1.023l3.327-6.27L207.532,97.283z"/>
		<path fill="#FFFFFF" d="M241.824,95.364c-0.641,0-1.152,0-1.792,0.127l-4.734,0.256l-3.199,6.27l21.753-1.28l-12.923-20.472
			c-0.512-0.768-1.024-1.28-1.664-1.792c-0.64-0.512-1.408-0.64-2.175-0.64c-0.896,0-1.664,0.384-2.175,0.896
			c-0.512,0.512-1.024,1.152-1.408,1.919l-10.748,21.752l6.909-0.384l7.933-15.995l3.71,6.014c0.384,0.512,0.64,1.151,1.024,1.792
			c0.383,0.64,0.767,1.151,1.023,1.535C242.975,95.364,242.463,95.364,241.824,95.364z"/>
		<path fill="#FFFFFF" d="M282.896,78.474c-0.385-1.023-0.769-1.919-1.408-2.303c-0.64-0.512-1.278-0.768-2.048-0.64
			c-0.767,0-1.406,0.256-1.918,0.768c-0.513,0.512-0.896,1.152-1.152,1.919L273.812,85c-0.384,0.896-0.64,1.791-0.896,2.431
			c-0.257,0.64-0.512,1.28-0.768,1.92c-0.128,0.511-0.384,1.023-0.512,1.535c-0.129,0.384-0.256,0.896-0.385,1.28
			c-0.256-0.384-0.384-0.768-0.64-1.28c-0.256-0.384-0.384-0.895-0.64-1.408c-0.255-0.511-0.512-1.151-0.896-1.791
			c-0.384-0.64-0.768-1.407-1.28-2.303l-3.325-6.397c-0.386-0.768-0.896-1.279-1.409-1.791c-0.511-0.512-1.15-0.64-1.918-0.512
			c-0.769,0-1.407,0.383-1.92,0.895c-0.511,0.512-0.896,1.408-1.151,2.431l-3.71,20.857l5.629-0.385l1.28-8.188
			c0.255-1.28,0.383-2.56,0.512-3.583c0.128-1.024,0.255-2.047,0.384-2.943c0.128,0.385,0.384,0.768,0.512,1.152
			c0.128,0.383,0.383,0.895,0.64,1.407c0.256,0.512,0.513,1.024,0.767,1.664c0.257,0.64,0.641,1.279,1.024,2.047l2.815,5.758
			c0.256,0.639,0.512,1.024,0.768,1.279c0.256,0.384,0.512,0.64,0.768,0.769c0.257,0.127,0.512,0.255,0.896,0.383
			c0.256,0,0.64,0,1.024,0c0.384,0,0.64,0,1.023-0.128c0.255-0.128,0.512-0.255,0.768-0.384c0.256-0.256,0.512-0.511,0.768-0.768
			c0.256-0.383,0.513-0.767,0.64-1.407l2.175-6.014c0.512-1.535,1.024-2.814,1.28-3.838c0.383-1.023,0.64-1.919,0.896-2.814
			c0.257,0.895,0.383,1.918,0.64,2.942c0.256,1.024,0.641,2.176,1.023,3.455l2.176,8.061l5.758-0.384L282.896,78.474z"/>
		<path fill="none" d="M381.547,84.616c0-0.128,0-0.384,0-0.512c0-0.128,0-0.385-0.128-0.512c-0.127-0.895-0.255-1.664-0.512-2.431
			c-0.128-0.384-0.128-0.64-0.256-1.023c-0.128-0.256-0.128-0.384-0.257-0.64l1.536-0.127c1.024,0,1.792,0.127,2.432,0.512
			c0.64,0.384,0.896,1.023,0.896,2.047c0,0.769-0.256,1.536-0.768,1.919c-0.641,0.512-1.279,0.768-2.175,0.768h-0.385"/>
		<path fill="#FFFFFF" d="M368.624,73.996l-3.455,6.27l12.54-0.64c-1.024-1.919-2.303-3.966-3.967-5.886L368.624,73.996z"/>
		
			<linearGradient id="SVGID_10_" gradientUnits="userSpaceOnUse" x1="9.5928" y1="543" x2="275.3654" y2="541.5863" gradientTransform="matrix(1.6443 0 0 -1.6443 41.8778 976.6528)">
			<stop  offset="0" style="stop-color:#1C76BC"/>
			<stop  offset="0.5022" style="stop-color:#68CDF5"/>
			<stop  offset="1" style="stop-color:#1C76BC"/>
		</linearGradient>
		<path fill="url(#SVGID_10_)" d="M376.173,71.693c-4.095-5.375-9.98-9.084-16.505-11.004c-0.257-0.127-0.641-0.127-0.896-0.256
			c-9.724-2.687-20.344-1.151-28.789,4.351c-19.577,12.795-15.098,37.49-15.098,37.49l-151.752,8.317h173.503h-0.128
			c-5.758-4.991-9.213-12.155-9.34-19.705c0-0.511,0-1.023,0-1.535c0.384-12.156,9.724-22.008,21.623-23.928
			c12.795-2.047,20.729,2.56,25.463,8.189l3.07-0.128C377.069,72.972,376.558,72.332,376.173,71.693z"/>
		
			<linearGradient id="SVGID_11_" gradientUnits="userSpaceOnUse" x1="9.5767" y1="545.0723" x2="275.3853" y2="543.6584" gradientTransform="matrix(1.6443 0 0 -1.6443 41.8778 976.6528)">
			<stop  offset="0" style="stop-color:#1C76BC"/>
			<stop  offset="0.5022" style="stop-color:#68CDF5"/>
			<stop  offset="1" style="stop-color:#1C76BC"/>
		</linearGradient>
		<path fill="url(#SVGID_11_)" d="M381.547,84.872h-1.023c0,0,0-0.128-0.129-0.256c-0.511-1.408-1.15-3.199-2.174-5.119l2.174-0.127
			c0.129,0.256,0.129,0.384,0.257,0.639c0.129,0.384,0.256,0.64,0.256,1.024c0.257,0.768,0.385,1.664,0.512,2.431
			c0,0.128,0,0.384,0,0.512c0,0.128,0,0.384,0,0.512C381.547,84.616,381.547,84.744,381.547,84.872z"/>
		<path fill="#FFFFFF" d="M381.419,88.326c0,0-0.255-1.407-0.896-3.454h1.023C381.675,85.896,381.675,87.175,381.419,88.326z"/>
		
			<linearGradient id="SVGID_12_" gradientUnits="userSpaceOnUse" x1="9.2251" y1="542.3535" x2="275.4893" y2="540.9373" gradientTransform="matrix(1.6443 0 0 -1.6443 41.8778 976.6528)">
			<stop  offset="0" style="stop-color:#1C76BC"/>
			<stop  offset="0.5022" style="stop-color:#68CDF5"/>
			<stop  offset="1" style="stop-color:#1C76BC"/>
		</linearGradient>
		<path fill="url(#SVGID_12_)" d="M381.419,88.326c0,0-0.255-1.407-0.896-3.454h1.023C381.675,85.896,381.675,87.175,381.419,88.326
			z"/>
		<path fill="#FFFFFF" d="M377.453,73.612l-3.071,0.128c1.664,1.919,2.942,3.966,3.966,5.886l2.176-0.128
			C379.757,77.323,378.732,75.403,377.453,73.612z"/>
		
			<linearGradient id="SVGID_13_" gradientUnits="userSpaceOnUse" x1="9.6348" y1="548.4092" x2="275.3893" y2="546.9957" gradientTransform="matrix(1.6443 0 0 -1.6443 41.8778 976.6528)">
			<stop  offset="0" style="stop-color:#1C76BC"/>
			<stop  offset="0.5022" style="stop-color:#68CDF5"/>
			<stop  offset="1" style="stop-color:#1C76BC"/>
		</linearGradient>
		<path fill="url(#SVGID_13_)" d="M377.453,73.612l-3.071,0.128c1.664,1.919,2.942,3.966,3.966,5.886l2.176-0.128
			C379.757,77.323,378.732,75.403,377.453,73.612z"/>
		
			<linearGradient id="SVGID_14_" gradientUnits="userSpaceOnUse" x1="173.9297" y1="521.6602" x2="197.8193" y2="521.6602" gradientTransform="matrix(1.6443 0 0 -1.6443 41.8778 976.6528)">
			<stop  offset="0" style="stop-color:#1C76BC"/>
			<stop  offset="0.5022" style="stop-color:#68CDF5"/>
			<stop  offset="1" style="stop-color:#1C76BC"/>
		</linearGradient>
		<path fill="url(#SVGID_14_)" d="M327.808,115.708c9.084,6.27,22.647,10.493,39.281,0c0,0-12.155,7.55-26.87,0H327.808
			L327.808,115.708z"/>
		
			<linearGradient id="SVGID_15_" gradientUnits="userSpaceOnUse" x1="24.1763" y1="541.2588" x2="72.6644" y2="541.2588" gradientTransform="matrix(1.6443 0 0 -1.6443 41.8778 976.6528)">
			<stop  offset="0" style="stop-color:#BDBCBC"/>
			<stop  offset="0.2371" style="stop-color:#FFFFFF"/>
			<stop  offset="0.4769" style="stop-color:#F4F4F4"/>
			<stop  offset="0.7156" style="stop-color:#CCCBCB"/>
			<stop  offset="1" style="stop-color:#6D6C6C"/>
		</linearGradient>
		<path fill="url(#SVGID_15_)" d="M137.287,58.002c-7.549-0.768-15.099,0.384-22.264,2.687c-3.199,1.024-5.63,2.432-8.573,4.223
			c-2.431,1.536-4.99,2.943-8.061,2.175c-0.384-0.128-0.768-0.256-1.151-0.383c-3.456-1.28-6.782-2.048-9.981,0.255
			c-8.701,6.525-6.014,19.705-0.64,27.382c3.199,4.605,7.805,8.444,12.795,11.387l0,0l0,0c0.64,0.384,1.28,0.896,2.047,1.151
			c2.304,1.408,5.758,5.758,6.526,8.701v-8.573V81.161c1.279-9.853,7.549-17.401,17.018-20.984
			c4.223-1.536,8.957-2.303,13.435-2.047C138.054,58.129,137.67,58.002,137.287,58.002z"/>
		<g>
			<g>
				<g>
					
						<linearGradient id="SVGID_16_" gradientUnits="userSpaceOnUse" x1="42.7114" y1="544.5459" x2="67.6782" y2="529.0154" gradientTransform="matrix(1.6443 0 0 -1.6443 41.8778 976.6528)">
						<stop  offset="0" style="stop-color:#1C76BC"/>
						<stop  offset="0.5022" style="stop-color:#68CDF5"/>
						<stop  offset="1" style="stop-color:#1C76BC"/>
					</linearGradient>
					<path id="SVGID_50_" fill="url(#SVGID_16_)" d="M168.891,87.814c-1.151-15.738-15.227-27.638-30.325-29.685
						c-4.606-0.127-9.212,0.512-13.435,2.047c-9.597,3.583-15.867,11.26-17.146,20.984v20.473v5.374v6.653v8.445h4.094
						c1.152,0.128,4.222,0.128,8.445,0.128c12.795,0,35.827-2.175,43.632-17.273c0.896-1.023,4.095-5.63,4.606-13.307
						C169.019,90.374,169.019,89.094,168.891,87.814z M157.375,98.051l-0.255,0.384l-0.128,0.511
						c-4.351,12.412-27.51,14.331-40.049,13.947V82.185c1.152-7.805,6.654-11.516,11.132-13.051
						c8.444-3.199,19.576-1.407,25.334,4.095C164.796,84.232,157.503,97.923,157.375,98.051z"/>
				</g>
				<g>
					<defs>
						<path id="SVGID_17_" d="M168.891,87.814c-1.151-15.738-15.227-27.638-30.325-29.685c-4.606-0.127-9.212,0.512-13.435,2.047
							c-9.597,3.583-15.867,11.26-17.146,20.984v20.473v5.374v6.653v8.445h4.094c1.152,0.128,4.222,0.128,8.445,0.128
							c12.795,0,35.827-2.175,43.632-17.273c0.896-1.023,4.095-5.63,4.606-13.307C169.019,90.374,169.019,89.094,168.891,87.814z
							 M157.375,98.051l-0.255,0.384l-0.128,0.511c-4.351,12.412-27.51,14.331-40.049,13.947V82.185
							c1.152-7.805,6.654-11.516,11.132-13.051c8.444-3.199,19.576-1.407,25.334,4.095
							C164.796,84.232,157.503,97.923,157.375,98.051z"/>
					</defs>
					<clipPath id="SVGID_18_">
						<use xlink:href="#SVGID_17_"  overflow="visible"/>
					</clipPath>
					
						<linearGradient id="SVGID_19_" gradientUnits="userSpaceOnUse" x1="41.502" y1="542.6016" x2="66.4687" y2="527.071" gradientTransform="matrix(1.6443 0 0 -1.6443 41.8778 976.6528)">
						<stop  offset="0" style="stop-color:#1C76BC"/>
						<stop  offset="0.5022" style="stop-color:#68CDF5"/>
						<stop  offset="1" style="stop-color:#1C76BC"/>
					</linearGradient>
					<rect x="116.942" y="65.935" clip-path="url(#SVGID_18_)" fill="url(#SVGID_19_)" width="2.687" height="47.214"/>
				</g>
				<g>
					<defs>
						<path id="SVGID_20_" d="M168.891,87.814c-1.151-15.738-15.227-27.638-30.325-29.685c-4.606-0.127-9.212,0.512-13.435,2.047
							c-9.597,3.583-15.867,11.26-17.146,20.984v20.473v5.374v6.653v8.445h4.094c1.152,0.128,4.222,0.128,8.445,0.128
							c12.795,0,35.827-2.175,43.632-17.273c0.896-1.023,4.095-5.63,4.606-13.307C169.019,90.374,169.019,89.094,168.891,87.814z
							 M157.375,98.051l-0.255,0.384l-0.128,0.511c-4.351,12.412-27.51,14.331-40.049,13.947V82.185
							c1.152-7.805,6.654-11.516,11.132-13.051c8.444-3.199,19.576-1.407,25.334,4.095
							C164.796,84.232,157.503,97.923,157.375,98.051z"/>
					</defs>
					<clipPath id="SVGID_21_">
						<use xlink:href="#SVGID_20_"  overflow="visible"/>
					</clipPath>
					
						<linearGradient id="SVGID_22_" gradientUnits="userSpaceOnUse" x1="42.2412" y1="543.7891" x2="67.2071" y2="528.259" gradientTransform="matrix(1.6443 0 0 -1.6443 41.8778 976.6528)">
						<stop  offset="0" style="stop-color:#1C76BC"/>
						<stop  offset="0.5022" style="stop-color:#68CDF5"/>
						<stop  offset="1" style="stop-color:#1C76BC"/>
					</linearGradient>
					<rect x="119.629" y="65.935" clip-path="url(#SVGID_21_)" fill="url(#SVGID_22_)" width="6.014" height="47.214"/>
				</g>
				<g>
					<defs>
						<path id="SVGID_23_" d="M168.891,87.814c-1.151-15.738-15.227-27.638-30.325-29.685c-4.606-0.127-9.212,0.512-13.435,2.047
							c-9.597,3.583-15.867,11.26-17.146,20.984v20.473v5.374v6.653v8.445h4.094c1.152,0.128,4.222,0.128,8.445,0.128
							c12.795,0,35.827-2.175,43.632-17.273c0.896-1.023,4.095-5.63,4.606-13.307C169.019,90.374,169.019,89.094,168.891,87.814z
							 M157.375,98.051l-0.255,0.384l-0.128,0.511c-4.351,12.412-27.51,14.331-40.049,13.947V82.185
							c1.152-7.805,6.654-11.516,11.132-13.051c8.444-3.199,19.576-1.407,25.334,4.095
							C164.796,84.232,157.503,97.923,157.375,98.051z"/>
					</defs>
					<clipPath id="SVGID_24_">
						<use xlink:href="#SVGID_23_"  overflow="visible"/>
					</clipPath>
					
						<linearGradient id="SVGID_25_" gradientUnits="userSpaceOnUse" x1="43.2622" y1="545.4316" x2="68.2291" y2="529.9011" gradientTransform="matrix(1.6443 0 0 -1.6443 41.8778 976.6528)">
						<stop  offset="0" style="stop-color:#1C76BC"/>
						<stop  offset="0.5022" style="stop-color:#68CDF5"/>
						<stop  offset="1" style="stop-color:#1C76BC"/>
					</linearGradient>
					<rect x="125.643" y="65.935" clip-path="url(#SVGID_24_)" fill="url(#SVGID_25_)" width="6.014" height="47.214"/>
				</g>
				<g>
					<defs>
						<path id="SVGID_26_" d="M168.891,87.814c-1.151-15.738-15.227-27.638-30.325-29.685c-4.606-0.127-9.212,0.512-13.435,2.047
							c-9.597,3.583-15.867,11.26-17.146,20.984v20.473v5.374v6.653v8.445h4.094c1.152,0.128,4.222,0.128,8.445,0.128
							c12.795,0,35.827-2.175,43.632-17.273c0.896-1.023,4.095-5.63,4.606-13.307C169.019,90.374,169.019,89.094,168.891,87.814z
							 M157.375,98.051l-0.255,0.384l-0.128,0.511c-4.351,12.412-27.51,14.331-40.049,13.947V82.185
							c1.152-7.805,6.654-11.516,11.132-13.051c8.444-3.199,19.576-1.407,25.334,4.095
							C164.796,84.232,157.503,97.923,157.375,98.051z"/>
					</defs>
					<clipPath id="SVGID_27_">
						<use xlink:href="#SVGID_26_"  overflow="visible"/>
					</clipPath>
					
						<linearGradient id="SVGID_28_" gradientUnits="userSpaceOnUse" x1="44.2607" y1="547.0361" x2="69.2276" y2="531.5056" gradientTransform="matrix(1.6443 0 0 -1.6443 41.8778 976.6528)">
						<stop  offset="0" style="stop-color:#1C76BC"/>
						<stop  offset="0.5022" style="stop-color:#68CDF5"/>
						<stop  offset="1" style="stop-color:#1C76BC"/>
					</linearGradient>
					<rect x="131.528" y="65.935" clip-path="url(#SVGID_27_)" fill="url(#SVGID_28_)" width="6.014" height="47.214"/>
				</g>
				<g>
					<defs>
						<path id="SVGID_29_" d="M168.891,87.814c-1.151-15.738-15.227-27.638-30.325-29.685c-4.606-0.127-9.212,0.512-13.435,2.047
							c-9.597,3.583-15.867,11.26-17.146,20.984v20.473v5.374v6.653v8.445h4.094c1.152,0.128,4.222,0.128,8.445,0.128
							c12.795,0,35.827-2.175,43.632-17.273c0.896-1.023,4.095-5.63,4.606-13.307C169.019,90.374,169.019,89.094,168.891,87.814z
							 M157.375,98.051l-0.255,0.384l-0.128,0.511c-4.351,12.412-27.51,14.331-40.049,13.947V82.185
							c1.152-7.805,6.654-11.516,11.132-13.051c8.444-3.199,19.576-1.407,25.334,4.095
							C164.796,84.232,157.503,97.923,157.375,98.051z"/>
					</defs>
					<clipPath id="SVGID_30_">
						<use xlink:href="#SVGID_29_"  overflow="visible"/>
					</clipPath>
					
						<linearGradient id="SVGID_31_" gradientUnits="userSpaceOnUse" x1="45.2798" y1="548.6758" x2="70.2471" y2="533.1449" gradientTransform="matrix(1.6443 0 0 -1.6443 41.8778 976.6528)">
						<stop  offset="0" style="stop-color:#1C76BC"/>
						<stop  offset="0.5022" style="stop-color:#68CDF5"/>
						<stop  offset="1" style="stop-color:#1C76BC"/>
					</linearGradient>
					<rect x="137.542" y="65.935" clip-path="url(#SVGID_30_)" fill="url(#SVGID_31_)" width="6.014" height="47.214"/>
				</g>
				<g>
					<defs>
						<path id="SVGID_32_" d="M168.891,87.814c-1.151-15.738-15.227-27.638-30.325-29.685c-4.606-0.127-9.212,0.512-13.435,2.047
							c-9.597,3.583-15.867,11.26-17.146,20.984v20.473v5.374v6.653v8.445h4.094c1.152,0.128,4.222,0.128,8.445,0.128
							c12.795,0,35.827-2.175,43.632-17.273c0.896-1.023,4.095-5.63,4.606-13.307C169.019,90.374,169.019,89.094,168.891,87.814z
							 M157.375,98.051l-0.255,0.384l-0.128,0.511c-4.351,12.412-27.51,14.331-40.049,13.947V82.185
							c1.152-7.805,6.654-11.516,11.132-13.051c8.444-3.199,19.576-1.407,25.334,4.095
							C164.796,84.232,157.503,97.923,157.375,98.051z"/>
					</defs>
					<clipPath id="SVGID_33_">
						<use xlink:href="#SVGID_32_"  overflow="visible"/>
					</clipPath>
					
						<linearGradient id="SVGID_34_" gradientUnits="userSpaceOnUse" x1="46.2788" y1="550.2803" x2="71.245" y2="534.7501" gradientTransform="matrix(1.6443 0 0 -1.6443 41.8778 976.6528)">
						<stop  offset="0" style="stop-color:#1C76BC"/>
						<stop  offset="0.5022" style="stop-color:#68CDF5"/>
						<stop  offset="1" style="stop-color:#1C76BC"/>
					</linearGradient>
					<rect x="143.428" y="65.935" clip-path="url(#SVGID_33_)" fill="url(#SVGID_34_)" width="6.014" height="47.214"/>
				</g>
				<g>
					<defs>
						<path id="SVGID_35_" d="M168.891,87.814c-1.151-15.738-15.227-27.638-30.325-29.685c-4.606-0.127-9.212,0.512-13.435,2.047
							c-9.597,3.583-15.867,11.26-17.146,20.984v20.473v5.374v6.653v8.445h4.094c1.152,0.128,4.222,0.128,8.445,0.128
							c12.795,0,35.827-2.175,43.632-17.273c0.896-1.023,4.095-5.63,4.606-13.307C169.019,90.374,169.019,89.094,168.891,87.814z
							 M157.375,98.051l-0.255,0.384l-0.128,0.511c-4.351,12.412-27.51,14.331-40.049,13.947V82.185
							c1.152-7.805,6.654-11.516,11.132-13.051c8.444-3.199,19.576-1.407,25.334,4.095
							C164.796,84.232,157.503,97.923,157.375,98.051z"/>
					</defs>
					<clipPath id="SVGID_36_">
						<use xlink:href="#SVGID_35_"  overflow="visible"/>
					</clipPath>
					
						<linearGradient id="SVGID_37_" gradientUnits="userSpaceOnUse" x1="47.3003" y1="551.9219" x2="72.2665" y2="536.3917" gradientTransform="matrix(1.6443 0 0 -1.6443 41.8778 976.6528)">
						<stop  offset="0" style="stop-color:#1C76BC"/>
						<stop  offset="0.5022" style="stop-color:#68CDF5"/>
						<stop  offset="1" style="stop-color:#1C76BC"/>
					</linearGradient>
					<rect x="149.442" y="65.935" clip-path="url(#SVGID_36_)" fill="url(#SVGID_37_)" width="6.014" height="47.214"/>
				</g>
				<g>
					<defs>
						<path id="SVGID_38_" d="M168.891,87.814c-1.151-15.738-15.227-27.638-30.325-29.685c-4.606-0.127-9.212,0.512-13.435,2.047
							c-9.597,3.583-15.867,11.26-17.146,20.984v20.473v5.374v6.653v8.445h4.094c1.152,0.128,4.222,0.128,8.445,0.128
							c12.795,0,35.827-2.175,43.632-17.273c0.896-1.023,4.095-5.63,4.606-13.307C169.019,90.374,169.019,89.094,168.891,87.814z
							 M157.375,98.051l-0.255,0.384l-0.128,0.511c-4.351,12.412-27.51,14.331-40.049,13.947V82.185
							c1.152-7.805,6.654-11.516,11.132-13.051c8.444-3.199,19.576-1.407,25.334,4.095
							C164.796,84.232,157.503,97.923,157.375,98.051z"/>
					</defs>
					<clipPath id="SVGID_39_">
						<use xlink:href="#SVGID_38_"  overflow="visible"/>
					</clipPath>
					
						<linearGradient id="SVGID_40_" gradientUnits="userSpaceOnUse" x1="48.2969" y1="553.5264" x2="73.2641" y2="537.9955" gradientTransform="matrix(1.6443 0 0 -1.6443 41.8778 976.6528)">
						<stop  offset="0" style="stop-color:#1C76BC"/>
						<stop  offset="0.5022" style="stop-color:#68CDF5"/>
						<stop  offset="1" style="stop-color:#1C76BC"/>
					</linearGradient>
					<rect x="155.328" y="65.935" clip-path="url(#SVGID_39_)" fill="url(#SVGID_40_)" width="6.014" height="47.214"/>
				</g>
				<g>
					<defs>
						<path id="SVGID_41_" d="M168.891,87.814c-1.151-15.738-15.227-27.638-30.325-29.685c-4.606-0.127-9.212,0.512-13.435,2.047
							c-9.597,3.583-15.867,11.26-17.146,20.984v20.473v5.374v6.653v8.445h4.094c1.152,0.128,4.222,0.128,8.445,0.128
							c12.795,0,35.827-2.175,43.632-17.273c0.896-1.023,4.095-5.63,4.606-13.307C169.019,90.374,169.019,89.094,168.891,87.814z
							 M157.375,98.051l-0.255,0.384l-0.128,0.511c-4.351,12.412-27.51,14.331-40.049,13.947V82.185
							c1.152-7.805,6.654-11.516,11.132-13.051c8.444-3.199,19.576-1.407,25.334,4.095
							C164.796,84.232,157.503,97.923,157.375,98.051z"/>
					</defs>
					<clipPath id="SVGID_42_">
						<use xlink:href="#SVGID_41_"  overflow="visible"/>
					</clipPath>
					
						<linearGradient id="SVGID_43_" gradientUnits="userSpaceOnUse" x1="49.1094" y1="554.835" x2="74.0781" y2="539.3032" gradientTransform="matrix(1.6443 0 0 -1.6443 41.8778 976.6528)">
						<stop  offset="0" style="stop-color:#1C76BC"/>
						<stop  offset="0.5022" style="stop-color:#68CDF5"/>
						<stop  offset="1" style="stop-color:#1C76BC"/>
					</linearGradient>
					<rect x="161.341" y="65.935" clip-path="url(#SVGID_42_)" fill="url(#SVGID_43_)" width="3.583" height="47.214"/>
				</g>
				<g>
					<defs>
						<path id="SVGID_44_" d="M168.891,87.814c-1.151-15.738-15.227-27.638-30.325-29.685c-4.606-0.127-9.212,0.512-13.435,2.047
							c-9.597,3.583-15.867,11.26-17.146,20.984v20.473v5.374v6.653v8.445h4.094c1.152,0.128,4.222,0.128,8.445,0.128
							c12.795,0,35.827-2.175,43.632-17.273c0.896-1.023,4.095-5.63,4.606-13.307C169.019,90.374,169.019,89.094,168.891,87.814z
							 M157.375,98.051l-0.255,0.384l-0.128,0.511c-4.351,12.412-27.51,14.331-40.049,13.947V82.185
							c1.152-7.805,6.654-11.516,11.132-13.051c8.444-3.199,19.576-1.407,25.334,4.095
							C164.796,84.232,157.503,97.923,157.375,98.051z"/>
					</defs>
					<clipPath id="SVGID_45_">
						<use xlink:href="#SVGID_44_"  overflow="visible"/>
					</clipPath>
					
						<linearGradient id="SVGID_46_" gradientUnits="userSpaceOnUse" x1="40.0469" y1="540.2637" x2="65.0143" y2="524.7327" gradientTransform="matrix(1.6443 0 0 -1.6443 41.8778 976.6528)">
						<stop  offset="0" style="stop-color:#1C76BC"/>
						<stop  offset="0.5022" style="stop-color:#68CDF5"/>
						<stop  offset="1" style="stop-color:#1C76BC"/>
					</linearGradient>
					<rect x="107.857" y="58.002" clip-path="url(#SVGID_45_)" fill="url(#SVGID_46_)" width="5.758" height="64.359"/>
				</g>
				<g>
					<defs>
						<path id="SVGID_47_" d="M168.891,87.814c-1.151-15.738-15.227-27.638-30.325-29.685c-4.606-0.127-9.212,0.512-13.435,2.047
							c-9.597,3.583-15.867,11.26-17.146,20.984v20.473v5.374v6.653v8.445h4.094c1.152,0.128,4.222,0.128,8.445,0.128
							c12.795,0,35.827-2.175,43.632-17.273c0.896-1.023,4.095-5.63,4.606-13.307C169.019,90.374,169.019,89.094,168.891,87.814z
							 M157.375,98.051l-0.255,0.384l-0.128,0.511c-4.351,12.412-27.51,14.331-40.049,13.947V82.185
							c1.152-7.805,6.654-11.516,11.132-13.051c8.444-3.199,19.576-1.407,25.334,4.095
							C164.796,84.232,157.503,97.923,157.375,98.051z"/>
					</defs>
					<clipPath id="SVGID_48_">
						<use xlink:href="#SVGID_47_"  overflow="visible"/>
					</clipPath>
					
						<linearGradient id="SVGID_49_" gradientUnits="userSpaceOnUse" x1="41.0684" y1="541.9043" x2="66.0355" y2="526.3737" gradientTransform="matrix(1.6443 0 0 -1.6443 41.8778 976.6528)">
						<stop  offset="0" style="stop-color:#1C76BC"/>
						<stop  offset="0.5022" style="stop-color:#68CDF5"/>
						<stop  offset="1" style="stop-color:#1C76BC"/>
					</linearGradient>
					<rect x="113.743" y="58.002" clip-path="url(#SVGID_48_)" fill="url(#SVGID_49_)" width="6.014" height="64.359"/>
				</g>
				<g>
					<defs>
						<path id="SVGID_51_" d="M168.891,87.814c-1.151-15.738-15.227-27.638-30.325-29.685c-4.606-0.127-9.212,0.512-13.435,2.047
							c-9.597,3.583-15.867,11.26-17.146,20.984v20.473v5.374v6.653v8.445h4.094c1.152,0.128,4.222,0.128,8.445,0.128
							c12.795,0,35.827-2.175,43.632-17.273c0.896-1.023,4.095-5.63,4.606-13.307C169.019,90.374,169.019,89.094,168.891,87.814z
							 M157.375,98.051l-0.255,0.384l-0.128,0.511c-4.351,12.412-27.51,14.331-40.049,13.947V82.185
							c1.152-7.805,6.654-11.516,11.132-13.051c8.444-3.199,19.576-1.407,25.334,4.095
							C164.796,84.232,157.503,97.923,157.375,98.051z"/>
					</defs>
					<clipPath id="SVGID_52_">
						<use xlink:href="#SVGID_51_"  overflow="visible"/>
					</clipPath>
					
						<linearGradient id="SVGID_53_" gradientUnits="userSpaceOnUse" x1="42.0669" y1="543.5088" x2="67.0335" y2="527.9783" gradientTransform="matrix(1.6443 0 0 -1.6443 41.8778 976.6528)">
						<stop  offset="0" style="stop-color:#1C76BC"/>
						<stop  offset="0.5022" style="stop-color:#68CDF5"/>
						<stop  offset="1" style="stop-color:#1C76BC"/>
					</linearGradient>
					<rect x="119.629" y="58.002" clip-path="url(#SVGID_52_)" fill="url(#SVGID_53_)" width="6.014" height="64.359"/>
				</g>
				<g>
					<defs>
						<path id="SVGID_54_" d="M168.891,87.814c-1.151-15.738-15.227-27.638-30.325-29.685c-4.606-0.127-9.212,0.512-13.435,2.047
							c-9.597,3.583-15.867,11.26-17.146,20.984v20.473v5.374v6.653v8.445h4.094c1.152,0.128,4.222,0.128,8.445,0.128
							c12.795,0,35.827-2.175,43.632-17.273c0.896-1.023,4.095-5.63,4.606-13.307C169.019,90.374,169.019,89.094,168.891,87.814z
							 M157.375,98.051l-0.255,0.384l-0.128,0.511c-4.351,12.412-27.51,14.331-40.049,13.947V82.185
							c1.152-7.805,6.654-11.516,11.132-13.051c8.444-3.199,19.576-1.407,25.334,4.095
							C164.796,84.232,157.503,97.923,157.375,98.051z"/>
					</defs>
					<clipPath id="SVGID_55_">
						<use xlink:href="#SVGID_54_"  overflow="visible"/>
					</clipPath>
					
						<linearGradient id="SVGID_56_" gradientUnits="userSpaceOnUse" x1="43.0874" y1="545.1504" x2="68.0546" y2="529.6196" gradientTransform="matrix(1.6443 0 0 -1.6443 41.8778 976.6528)">
						<stop  offset="0" style="stop-color:#1C76BC"/>
						<stop  offset="0.5022" style="stop-color:#68CDF5"/>
						<stop  offset="1" style="stop-color:#1C76BC"/>
					</linearGradient>
					<rect x="125.643" y="58.002" clip-path="url(#SVGID_55_)" fill="url(#SVGID_56_)" width="6.014" height="64.359"/>
				</g>
				<g>
					<defs>
						<path id="SVGID_57_" d="M168.891,87.814c-1.151-15.738-15.227-27.638-30.325-29.685c-4.606-0.127-9.212,0.512-13.435,2.047
							c-9.597,3.583-15.867,11.26-17.146,20.984v20.473v5.374v6.653v8.445h4.094c1.152,0.128,4.222,0.128,8.445,0.128
							c12.795,0,35.827-2.175,43.632-17.273c0.896-1.023,4.095-5.63,4.606-13.307C169.019,90.374,169.019,89.094,168.891,87.814z
							 M157.375,98.051l-0.255,0.384l-0.128,0.511c-4.351,12.412-27.51,14.331-40.049,13.947V82.185
							c1.152-7.805,6.654-11.516,11.132-13.051c8.444-3.199,19.576-1.407,25.334,4.095
							C164.796,84.232,157.503,97.923,157.375,98.051z"/>
					</defs>
					<clipPath id="SVGID_58_">
						<use xlink:href="#SVGID_57_"  overflow="visible"/>
					</clipPath>
					
						<linearGradient id="SVGID_59_" gradientUnits="userSpaceOnUse" x1="44.0864" y1="546.7549" x2="69.0522" y2="531.225" gradientTransform="matrix(1.6443 0 0 -1.6443 41.8778 976.6528)">
						<stop  offset="0" style="stop-color:#1C76BC"/>
						<stop  offset="0.5022" style="stop-color:#68CDF5"/>
						<stop  offset="1" style="stop-color:#1C76BC"/>
					</linearGradient>
					<rect x="131.528" y="58.002" clip-path="url(#SVGID_58_)" fill="url(#SVGID_59_)" width="6.014" height="64.359"/>
				</g>
				<g>
					<defs>
						<path id="SVGID_60_" d="M168.891,87.814c-1.151-15.738-15.227-27.638-30.325-29.685c-4.606-0.127-9.212,0.512-13.435,2.047
							c-9.597,3.583-15.867,11.26-17.146,20.984v20.473v5.374v6.653v8.445h4.094c1.152,0.128,4.222,0.128,8.445,0.128
							c12.795,0,35.827-2.175,43.632-17.273c0.896-1.023,4.095-5.63,4.606-13.307C169.019,90.374,169.019,89.094,168.891,87.814z
							 M157.375,98.051l-0.255,0.384l-0.128,0.511c-4.351,12.412-27.51,14.331-40.049,13.947V82.185
							c1.152-7.805,6.654-11.516,11.132-13.051c8.444-3.199,19.576-1.407,25.334,4.095
							C164.796,84.232,157.503,97.923,157.375,98.051z"/>
					</defs>
					<clipPath id="SVGID_61_">
						<use xlink:href="#SVGID_60_"  overflow="visible"/>
					</clipPath>
					
						<linearGradient id="SVGID_62_" gradientUnits="userSpaceOnUse" x1="45.1064" y1="548.3945" x2="70.0731" y2="532.8641" gradientTransform="matrix(1.6443 0 0 -1.6443 41.8778 976.6528)">
						<stop  offset="0" style="stop-color:#1C76BC"/>
						<stop  offset="0.5022" style="stop-color:#68CDF5"/>
						<stop  offset="1" style="stop-color:#1C76BC"/>
					</linearGradient>
					<rect x="137.542" y="58.002" clip-path="url(#SVGID_61_)" fill="url(#SVGID_62_)" width="6.014" height="64.359"/>
				</g>
				<g>
					<defs>
						<path id="SVGID_63_" d="M168.891,87.814c-1.151-15.738-15.227-27.638-30.325-29.685c-4.606-0.127-9.212,0.512-13.435,2.047
							c-9.597,3.583-15.867,11.26-17.146,20.984v20.473v5.374v6.653v8.445h4.094c1.152,0.128,4.222,0.128,8.445,0.128
							c12.795,0,35.827-2.175,43.632-17.273c0.896-1.023,4.095-5.63,4.606-13.307C169.019,90.374,169.019,89.094,168.891,87.814z
							 M157.375,98.051l-0.255,0.384l-0.128,0.511c-4.351,12.412-27.51,14.331-40.049,13.947V82.185
							c1.152-7.805,6.654-11.516,11.132-13.051c8.444-3.199,19.576-1.407,25.334,4.095
							C164.796,84.232,157.503,97.923,157.375,98.051z"/>
					</defs>
					<clipPath id="SVGID_64_">
						<use xlink:href="#SVGID_63_"  overflow="visible"/>
					</clipPath>
					
						<linearGradient id="SVGID_65_" gradientUnits="userSpaceOnUse" x1="46.1055" y1="550" x2="71.0721" y2="534.4695" gradientTransform="matrix(1.6443 0 0 -1.6443 41.8778 976.6528)">
						<stop  offset="0" style="stop-color:#1C76BC"/>
						<stop  offset="0.5022" style="stop-color:#68CDF5"/>
						<stop  offset="1" style="stop-color:#1C76BC"/>
					</linearGradient>
					<rect x="143.428" y="58.002" clip-path="url(#SVGID_64_)" fill="url(#SVGID_65_)" width="6.014" height="64.359"/>
				</g>
				<g>
					<defs>
						<path id="SVGID_66_" d="M168.891,87.814c-1.151-15.738-15.227-27.638-30.325-29.685c-4.606-0.127-9.212,0.512-13.435,2.047
							c-9.597,3.583-15.867,11.26-17.146,20.984v20.473v5.374v6.653v8.445h4.094c1.152,0.128,4.222,0.128,8.445,0.128
							c12.795,0,35.827-2.175,43.632-17.273c0.896-1.023,4.095-5.63,4.606-13.307C169.019,90.374,169.019,89.094,168.891,87.814z
							 M157.375,98.051l-0.255,0.384l-0.128,0.511c-4.351,12.412-27.51,14.331-40.049,13.947V82.185
							c1.152-7.805,6.654-11.516,11.132-13.051c8.444-3.199,19.576-1.407,25.334,4.095
							C164.796,84.232,157.503,97.923,157.375,98.051z"/>
					</defs>
					<clipPath id="SVGID_67_">
						<use xlink:href="#SVGID_66_"  overflow="visible"/>
					</clipPath>
					
						<linearGradient id="SVGID_68_" gradientUnits="userSpaceOnUse" x1="47.1245" y1="551.6416" x2="72.0917" y2="536.1107" gradientTransform="matrix(1.6443 0 0 -1.6443 41.8778 976.6528)">
						<stop  offset="0" style="stop-color:#1C76BC"/>
						<stop  offset="0.5022" style="stop-color:#68CDF5"/>
						<stop  offset="1" style="stop-color:#1C76BC"/>
					</linearGradient>
					<rect x="149.442" y="58.002" clip-path="url(#SVGID_67_)" fill="url(#SVGID_68_)" width="6.014" height="64.359"/>
				</g>
				<g>
					<defs>
						<path id="SVGID_69_" d="M168.891,87.814c-1.151-15.738-15.227-27.638-30.325-29.685c-4.606-0.127-9.212,0.512-13.435,2.047
							c-9.597,3.583-15.867,11.26-17.146,20.984v20.473v5.374v6.653v8.445h4.094c1.152,0.128,4.222,0.128,8.445,0.128
							c12.795,0,35.827-2.175,43.632-17.273c0.896-1.023,4.095-5.63,4.606-13.307C169.019,90.374,169.019,89.094,168.891,87.814z
							 M157.375,98.051l-0.255,0.384l-0.128,0.511c-4.351,12.412-27.51,14.331-40.049,13.947V82.185
							c1.152-7.805,6.654-11.516,11.132-13.051c8.444-3.199,19.576-1.407,25.334,4.095
							C164.796,84.232,157.503,97.923,157.375,98.051z"/>
					</defs>
					<clipPath id="SVGID_70_">
						<use xlink:href="#SVGID_69_"  overflow="visible"/>
					</clipPath>
					
						<linearGradient id="SVGID_71_" gradientUnits="userSpaceOnUse" x1="48.1245" y1="553.2471" x2="73.0912" y2="537.7166" gradientTransform="matrix(1.6443 0 0 -1.6443 41.8778 976.6528)">
						<stop  offset="0" style="stop-color:#1C76BC"/>
						<stop  offset="0.5022" style="stop-color:#68CDF5"/>
						<stop  offset="1" style="stop-color:#1C76BC"/>
					</linearGradient>
					<rect x="155.328" y="58.002" clip-path="url(#SVGID_70_)" fill="url(#SVGID_71_)" width="6.014" height="64.359"/>
				</g>
				<g>
					<defs>
						<path id="SVGID_72_" d="M168.891,87.814c-1.151-15.738-15.227-27.638-30.325-29.685c-4.606-0.127-9.212,0.512-13.435,2.047
							c-9.597,3.583-15.867,11.26-17.146,20.984v20.473v5.374v6.653v8.445h4.094c1.152,0.128,4.222,0.128,8.445,0.128
							c12.795,0,35.827-2.175,43.632-17.273c0.896-1.023,4.095-5.63,4.606-13.307C169.019,90.374,169.019,89.094,168.891,87.814z
							 M157.375,98.051l-0.255,0.384l-0.128,0.511c-4.351,12.412-27.51,14.331-40.049,13.947V82.185
							c1.152-7.805,6.654-11.516,11.132-13.051c8.444-3.199,19.576-1.407,25.334,4.095
							C164.796,84.232,157.503,97.923,157.375,98.051z"/>
					</defs>
					<clipPath id="SVGID_73_">
						<use xlink:href="#SVGID_72_"  overflow="visible"/>
					</clipPath>
					
						<linearGradient id="SVGID_74_" gradientUnits="userSpaceOnUse" x1="49.145" y1="554.8867" x2="74.1117" y2="539.3563" gradientTransform="matrix(1.6443 0 0 -1.6443 41.8778 976.6528)">
						<stop  offset="0" style="stop-color:#1C76BC"/>
						<stop  offset="0.5022" style="stop-color:#68CDF5"/>
						<stop  offset="1" style="stop-color:#1C76BC"/>
					</linearGradient>
					<rect x="161.341" y="58.002" clip-path="url(#SVGID_73_)" fill="url(#SVGID_74_)" width="6.014" height="64.359"/>
				</g>
				<g>
					<defs>
						<path id="SVGID_75_" d="M168.891,87.814c-1.151-15.738-15.227-27.638-30.325-29.685c-4.606-0.127-9.212,0.512-13.435,2.047
							c-9.597,3.583-15.867,11.26-17.146,20.984v20.473v5.374v6.653v8.445h4.094c1.152,0.128,4.222,0.128,8.445,0.128
							c12.795,0,35.827-2.175,43.632-17.273c0.896-1.023,4.095-5.63,4.606-13.307C169.019,90.374,169.019,89.094,168.891,87.814z
							 M157.375,98.051l-0.255,0.384l-0.128,0.511c-4.351,12.412-27.51,14.331-40.049,13.947V82.185
							c1.152-7.805,6.654-11.516,11.132-13.051c8.444-3.199,19.576-1.407,25.334,4.095
							C164.796,84.232,157.503,97.923,157.375,98.051z"/>
					</defs>
					<clipPath id="SVGID_76_">
						<use xlink:href="#SVGID_75_"  overflow="visible"/>
					</clipPath>
					
						<linearGradient id="SVGID_77_" gradientUnits="userSpaceOnUse" x1="49.7734" y1="555.8975" x2="74.7394" y2="540.3674" gradientTransform="matrix(1.6443 0 0 -1.6443 41.8778 976.6528)">
						<stop  offset="0" style="stop-color:#1C76BC"/>
						<stop  offset="0.5022" style="stop-color:#68CDF5"/>
						<stop  offset="1" style="stop-color:#1C76BC"/>
					</linearGradient>
					<rect x="167.228" y="58.002" clip-path="url(#SVGID_76_)" fill="url(#SVGID_77_)" width="1.663" height="64.359"/>
				</g>
			</g>
		</g>
		<path fill="none" d="M128.074,69.134c-4.479,1.664-9.853,5.246-11.132,13.051v30.58c12.539,0.384,35.698-1.535,40.049-13.946
			l0.128-0.513l0.255-0.384c0.128-0.128,7.421-13.818-3.966-24.823C147.65,67.727,136.519,65.935,128.074,69.134z"/>
		<path fill="none" d="M128.074,69.134c-4.479,1.664-9.853,5.246-11.132,13.051v30.58c12.539,0.384,35.698-1.535,40.049-13.946
			l0.128-0.513l0.255-0.384c0.128-0.128,7.421-13.818-3.966-24.823C147.65,67.727,136.519,65.935,128.074,69.134z"/>
		
			<linearGradient id="SVGID_78_" gradientUnits="userSpaceOnUse" x1="39.623" y1="545.3848" x2="79.5305" y2="543.7137" gradientTransform="matrix(1.6443 0 0 -1.6443 41.8778 976.6528)">
			<stop  offset="0" style="stop-color:#1C76BC"/>
			<stop  offset="0.5022" style="stop-color:#68CDF5"/>
			<stop  offset="1" style="stop-color:#1C76BC"/>
		</linearGradient>
		<path fill="url(#SVGID_78_)" d="M138.438,58.129c-4.605-0.127-9.212,0.512-13.435,2.047c-9.469,3.583-15.738,11.26-17.018,20.984
			v6.909l0,0c0.256-3.454,1.408-6.909,2.943-10.108c3.327-6.91,10.108-14.842,24.055-15.61c0,0,25.207-2.175,31.348,22.264
			c0.512,2.047,0.768,4.222,0.64,6.397c-0.128,3.583-0.64,9.34-3.071,14.331c0,0,0.128-0.129,0.256-0.256
			c0.384-0.768,0.768-1.664,1.151-2.559c2.047-3.583,3.583-8.957,3.583-14.843C167.739,72.077,153.537,60.177,138.438,58.129z"/>
		<path fill="#FFFFFF" d="M393.191,96.132l-5.886,0.256l-1.92,0.127l-4.479-6.014l-8.829,0.512l0.384,6.142l-5.758,0.255
			l-0.639-11.899l14.203-0.768c0.255,0.639,1.023,2.942,1.023,3.966c0,0,0.639-1.28,0.639-4.094h0.385
			c0.896,0,1.663-0.384,2.175-0.768c0.639-0.512,0.896-1.151,0.768-1.919c0-0.896-0.384-1.535-0.896-2.047
			c-0.64-0.384-1.407-0.64-2.432-0.512l-1.536,0.127c-0.767-2.175-1.79-4.222-3.07-5.886l3.84-0.256c0.895,0,1.791,0,2.686,0.128
			c0.256,0,0.385,0,0.641,0.128c1.151,0.256,2.175,0.64,3.199,1.152c0.64,0.384,1.278,0.896,1.791,1.535l0,0
			c0.257,0.256,0.511,0.64,0.64,0.896c0.256,0.383,0.384,0.768,0.641,1.151c0.255,0.768,0.511,1.792,0.511,2.943
			c0,0.896,0,1.792-0.256,2.559c-0.128,0.768-0.512,1.535-0.896,2.304c-0.383,0.64-0.896,1.279-1.407,1.791
			c-0.256,0.256-0.512,0.383-0.769,0.511c-0.384,0.256-0.768,0.384-1.279,0.512c0.385,0.256,0.64,0.64,1.151,1.151l0.128,0.128
			c0.384,0.384,0.896,1.023,1.536,1.663L393.191,96.132z"/>
	</g>
</g>
</svg>
